# xmcd
#
# Track frame offsets: 
#        150
#        17724
#        40152
#        83058
#        104790
#        127370
#        156785
#        180124
#        206948
#        214866
#        231690
#        250118
#        265019
#        286463
#
# Disc length: 4448 seconds
#
# Revision: 2
# Processed by: cddbd v1.5.2PL0 Copyright (c) Steve Scherf et al.
# Submitted via: ExactAudioCopy v1.0b6
#
DISCID=d0115e0e
DTITLE=Eric Burdon - The Eric Burdon Story CD1
DYEAR=2004
DGENRE=R&B
TTITLE0=San Franciscan Nights
TTITLE1=House of the Rising Sun
TTITLE2=We gotta out of this Place
TTITLE3=Take It Easy
TTITLE4=I'm Crying
TTITLE5=Don't let me be misunderstood
TTITLE6=Don't bring me down
TTITLE7=Bird on the Beach
TTITLE8=Lights Out
TTITLE9=I'm Ready
TTITLE10=Devil's Daughter
TTITLE11=Be my Baby
TTITLE12=Boom Boom
TTITLE13=Tobbaco Road
EXTD=
EXTT0=
EXTT1=
EXTT2=
EXTT3=
EXTT4=
EXTT5=
EXTT6=
EXTT7=
EXTT8=
EXTT9=
EXTT10=
EXTT11=
EXTT12=
EXTT13=
PLAYORDER=
